<?xml version="1.0" encoding="utf-8"?>
<!-- Uploaded to: SVG Repo, www.svgrepo.com, Generator: SVG Repo Mixer Tools -->
<svg fill="#000000" width="800px" height="800px" viewBox="0 0 32 32" version="1.1" xmlns="http://www.w3.org/2000/svg">
<title>uber</title>
<path d="M14.192 14.77c1.377 0 2.494 1.117 2.494 2.494s-1.117 2.494-2.494 2.494-2.494-1.117-2.494-2.494c0-1.377 1.116-2.494 2.494-2.494h0zM22.604 14.755c1.090 0.007 1.995 0.789 2.192 1.823l0.002 0.014h-4.4c0.208-1.047 1.114-1.826 2.204-1.837h0.001zM30.501 13.596c-0.019-0.001-0.042-0.001-0.065-0.001-0.704 0-1.319 0.377-1.656 0.94l-0.005 0.009v-0.891h-1.413v7.215h1.427v-4.105c-0.007-0.056-0.011-0.121-0.011-0.187 0-0.902 0.724-1.635 1.622-1.65l0.001-0h0.594v-1.331h-0.495zM22.634 13.511c-2.053 0.027-3.708 1.698-3.708 3.755 0 2.074 1.681 3.756 3.756 3.756 0.027 0 0.055-0 0.082-0.001l-0.004 0c0.020 0 0.043 0.001 0.067 0.001 1.245 0 2.349-0.602 3.037-1.531l0.007-0.010-1.032-0.764c-0.454 0.644-1.195 1.059-2.032 1.059-0.017 0-0.033-0-0.050-0l0.003 0c-0 0-0 0-0 0-1.205 0-2.204-0.882-2.387-2.036l-0.002-0.014h5.87v-0.466c0.003-0.051 0.004-0.111 0.004-0.171 0-1.976-1.602-3.578-3.578-3.578-0.011 0-0.023 0-0.034 0h0.002zM10.302 10.964v9.903h1.412v-0.906c0.654 0.664 1.562 1.075 2.566 1.075 0.003 0 0.006 0 0.009 0h-0c0.007 0 0.016 0 0.025 0 2.082 0 3.77-1.688 3.77-3.77s-1.688-3.77-3.77-3.77c-0.008 0-0.017 0-0.025 0h0.001c-0.001 0-0.003 0-0.004 0-1.001 0-1.907 0.412-2.555 1.075l-0.001 0.001v-3.606h-1.428zM1.004 10.964v6.196c-0.004 0.062-0.006 0.135-0.006 0.209 0 2.026 1.642 3.667 3.667 3.667 0.031 0 0.061-0 0.092-0.001l-0.005 0c0.015 0 0.032 0 0.049 0 1.007 0 1.917-0.416 2.567-1.087l0.001-0.001v0.92h1.47v-9.903h-1.485v6.108c0.004 0.054 0.007 0.117 0.007 0.181 0 1.35-1.091 2.445-2.439 2.451h-0.001c-0.004 0-0.010 0-0.015 0-1.34 0-2.426-1.086-2.426-2.426 0-0.073 0.003-0.144 0.009-0.215l-0.001 0.009v-6.107h-1.486z"></path>
</svg>